HIERARCHY
ROOT ui
{
	 OFFSET 0 0 0
	 CHANNELS 3 XPosition YPosition Z Position
	 EndSite
	 {
	 OFFSET 0 -1 0
	 }
}
ROOT li
{
	 OFFSET 0 0 0
	 CHANNELS 3 XPosition YPosition Z Position
	 EndSite
	 {
	 OFFSET 0 -1 0
	 }
}
ROOT ul
{
	 OFFSET 0 0 0
	 CHANNELS 3 XPosition YPosition Z Position
	 EndSite
	 {
	 OFFSET 0 -1 0
	 }
}
ROOT ll
{
	 OFFSET 0 0 0
	 CHANNELS 3 XPosition YPosition Z Position
	 EndSite
	 {
	 OFFSET 0 -1 0
	 }
}
ROOT tt
{
	 OFFSET 0 0 0
	 CHANNELS 3 XPosition YPosition Z Position
	 EndSite
	 {
	 OFFSET 0 -1 0
	 }
}
ROOT tb
{
	 OFFSET 0 0 0
	 CHANNELS 3 XPosition YPosition Z Position
	 EndSite
	 {
	 OFFSET 0 -1 0
	 }
}
ROOT td
{
	 OFFSET 0 0 0
	 CHANNELS 3 XPosition YPosition Z Position
	 EndSite
	 {
	 OFFSET 0 -1 0
	 }
}
ROOT v
{
	 OFFSET 0 0 0
	 CHANNELS 3 XPosition YPosition Z Position
	 EndSite
	 {
	 OFFSET 0 -1 0
	 }
}
ROOT bn
{
	 OFFSET 0 0 0
	 CHANNELS 3 XPosition YPosition Z Position
	 EndSite
	 {
	 OFFSET 0 -1 0
	 }
}
MOTION
Frames: 13
Frame Time: 0.002
-0.008424807548522949	5.551350116729737E-4	0		0.4747588500976562	-2.3657294921875	0		-1.0788316650390626	-0.024941843032836915	0		-0.7406807250976563	-2.234384033203125	0		1.50069189453125	-0.5545291748046876	0		3.08477685546875	0.15554133605957032	0		4.5543759765625	0.27300912475585937	0		5.56770556640625	0.13421315002441406	0		-0.27502194213867187	5.89938818359375	0		
0.06925112915039063	0.001020037055015564	0		0.4998544006347656	-2.3667099609375	0		-1.0771297607421875	-0.021247434616088866	0		-0.775459228515625	-2.22730712890625	0		1.49516650390625	-0.5593534545898438	0		3.07139404296875	0.1484458465576172	0		4.54109765625	0.27156600952148435	0		5.55639453125	0.1325049591064453	0		-0.14171286010742187	5.91822021484375	0		
-0.021879829406738282	0.02068135643005371	0		0.4490584106445312	-2.3546884765625	0		-1.0714315185546874	-0.014579266548156737	0		-0.7502935791015625	-2.22097314453125	0		1.4926441650390625	-0.560198974609375	0		3.0703037109375	0.16720613098144532	0		4.5538525390625	0.2757904663085938	0		5.5581298828125	0.13762901306152345	0		-0.12853330993652343	5.92858447265625	0		
0.06850919342041016	0.0029937229156494142	0		0.4959605712890625	-2.36591650390625	0		-1.0449385986328126	-0.023162088394165038	0		-0.7813123168945313	-2.227873291015625	0		1.4792762451171875	-0.5488662719726562	0		3.059670166015625	0.1451227569580078	0		4.54461865234375	0.2813348388671875	0		5.5557685546875	0.13583940124511718	0		-0.1295032958984375	5.92816064453125	0		
-0.01487945556640625	0.0016602929830551148	0		0.4910053405761719	-2.3684228515625	0		-1.047313720703125	-0.02333197784423828	0		-0.724199951171875	-2.227919677734375	0		1.4906671142578125	-0.5578213500976562	0		3.10949267578125	0.15527700805664063	0		4.54921923828125	0.27275088500976563	0		5.5724287109375	0.13385324096679688	0		-0.14363494873046875	5.9159521484375	0		
0.04193379211425781	0.01047398567199707	0		0.4881424865722656	-2.368909912109375	0		-1.090676025390625	-0.025900278091430664	0		-0.76299951171875	-2.22563134765625	0		1.4712901611328124	-0.5533037719726562	0		3.0661298828125	0.14875541687011717	0		4.54696240234375	0.27133267211914064	0		5.56602978515625	0.12425627136230469	0		-0.14558345031738282	5.9166240234375	0		
-0.016391265869140626	0.00492073392868042	0		0.4594004821777344	-2.366983154296875	0		-1.07701611328125	-0.03221254348754883	0		-0.755853515625	-2.233931884765625	0		1.4797496337890625	-0.5661118774414062	0		3.07092724609375	0.14864944458007812	0		4.5447734375	0.2699974670410156	0		5.55792138671875	0.13077906799316405	0		-0.27883334350585937	5.89517919921875	0		
0.05941201782226563	0.0015309150218963622	0		0.4618368225097656	-2.360435791015625	0		-1.0651572265625	-0.030467241287231446	0		-0.7883569946289063	-2.22462890625	0		1.4835673828125	-0.5597947998046875	0		3.059670166015625	0.13884457397460936	0		4.5396552734375	0.267794189453125	0		5.56651611328125	0.11016375732421875	0		-0.277774658203125	5.8929267578125	0		
-0.020612375259399414	0.004407616138458252	0		0.48626779174804685	-2.3631552734375	0		-1.056125244140625	-0.02364905548095703	0		-0.7328873901367188	-2.2265439453125	0		1.49831884765625	-0.5655755004882812	0		3.06902490234375	0.16482951354980468	0		4.53376318359375	0.27469940185546876	0		5.55886669921875	0.13588894653320313	0		-0.1321878204345703	5.923634765625	0		
0.051353061676025394	-0.0018613580465316772	0		0.4777622985839844	-2.370350341796875	0		-1.0950654296875	-0.022098508834838868	0		-0.763379150390625	-2.234185546875	0		1.4823900146484374	-0.556847900390625	0		3.04365087890625	0.133394287109375	0		4.5387578125	0.26654437255859376	0		5.5477197265625	0.11977379608154297	0		-0.14814573669433595	5.91468896484375	0		
-0.027467784881591798	1.2231899797916413E-4	0		0.47549603271484375	-2.370582275390625	0		-1.0599320068359375	-0.02359769821166992	0		-0.7755016479492187	-2.226049072265625	0		1.468226318359375	-0.5720797119140625	0		3.067931640625	0.13931932067871095	0		4.5369619140625	0.2655885009765625	0		5.54589697265625	0.11863810729980469	0		-0.14893519592285157	5.914568359375	0		
-0.0439884147644043	0.014245892524719238	0		0.4204505310058594	-2.36497265625	0		-1.0867996826171875	-0.03215008544921875	0		-0.8046756591796875	-2.230619384765625	0		1.469458740234375	-0.5684732666015625	0		3.066222900390625	0.13870494079589843	0		4.53527392578125	0.2647297058105469	0		5.54418505859375	0.11761145782470703	0		-0.2981604309082031	5.8837080078125	0		
-0.027755413055419922	0.003918045043945313	0		0.47544686889648435	-2.366963134765625	0		-1.088420654296875	-0.03204544067382813	0		-0.7676564331054687	-2.23214794921875	0		1.4707998046875	-0.56581005859375	0		3.054826171875	0.15131646728515624	0		4.5268056640625	0.27106915283203126	0		5.537693359375	0.12376447296142579	0		-0.2685665283203125	5.903234375	0		
